<?xml version="1.0" encoding="utf-8"?>
<!-- Generator: Adobe Illustrator 23.1.0, SVG Export Plug-In . SVG Version: 6.00 Build 0)  -->
<svg version="1.1" id="Calque_1" xmlns="http://www.w3.org/2000/svg" xmlns:xlink="http://www.w3.org/1999/xlink" x="0px" y="0px"
	 viewBox="0 0 100 125" style="enable-background:new 0 0 100 125;" xml:space="preserve">
<style type="text/css">
	.st0{fill:#CC6600;}
	.st1{fill:#00CCFF;}
	.st2{fill:#80DB4B;}
	.st3{fill:#FFFF33;}
	.st4{fill:#FF0000;}
</style>
<g id="intern">
	<path id="i_x5F_compass_x5F_out" class="st0" d="M68.1,11.4c-12.1,0-20.7,9.2-20.7,20.2s9.7,20.9,20.6,20.9s20.5-9.3,20.5-20.2
		S81.5,11.4,68.1,11.4z M68.7,48.9c-13,0.7-17.7-12.1-17.5-17.1c0.4-9.4,7.3-16.7,17-16.7c9.7,0,16.5,6.7,16.5,16.8
		C84.6,41.8,75.9,48.5,68.7,48.9z"/>
	<path id="i_x5F_bot_x5F_map" class="st1" d="M71.3,52.5c-6.6,1.6-17.7-3.8-21.5-10.1c-1.5,1.5-6.6,4.9-3.9,15.8
		c3.3,9.2,0.2,16.9-0.9,19l8.6,11.2l28.3-22C81.9,66.5,81.5,65.6,71.3,52.5z"/>
	<path id="i_x5F_upper_x5F_map" class="st2" d="M44.5,55.7c-0.7-3.2,1.6-11.8,4.6-14.1c0.3-0.2-2.1-5.3-2.1-8.7
		c0-2.8,0.6-6.4,1.5-8.9l-8.7-11.1L11.4,34.8l32.7,42C49.5,67.5,45.1,58.3,44.5,55.7z"/>
	<polygon id="i_x5F_compass_x5F_pike" class="st3" points="64.2,36.2 69.9,33.3 72.8,27.6 67.1,30.4 	"/>
</g>
<path id="cross" class="st4" d="M33.6,34.4c0.4-0.4,0.7-1,1.2-1.7c1.2-1.8,1.9-2.7,1.8-3c-0.1-0.7-0.5-0.7-1.4,0
	c-0.7,0.6-1.6,1.7-2.6,3.1c-0.1,0.2-0.2,0.4-0.4,0.4c-1.1-1-2-1.5-2.7-1.9c-0.9-0.4-1.2-0.3-1.2,0.4c0,0.2,0.6,0.7,1.9,1.8
	c0.4,0.4,0.8,0.7,1.2,1c-0.4,0.8-1,1.6-1.2,2.4c-0.7,1.4-1.1,2.5-1,2.9c0,0,0.1,0.2,0.2,0.4c0.2,0.4,0.4,0.4,0.5,0.4
	c0.4-0.7,0.7-1.4,1.2-2.2c0.7-1.3,1.2-2.3,1.5-2.8c0.1,0.1,0.2,0.2,0.3,0.3c0,0,0.6,0.8,2,2.4c1,1.2,1.6,1.7,1.9,1.7
	c0.3-0.1,0.4-0.2,0.5-0.4s0.2-0.4,0.1-0.4c-0.1-0.4-0.5-1.2-1.6-2.3C35.1,36,34.4,35.2,33.6,34.4z"/>
<path d="M37.3,52.5c-1.5-0.4-2.9-0.5-4.2-0.4c-0.6,0-1,0.5-0.9,1c0,0.6,0.5,1,1,0.9c1.1-0.1,2.3,0.1,3.7,0.4c0.1,0,0.2,0,0.2,0
	c0.5,0,0.9-0.3,1-0.8C38.2,53.2,37.8,52.6,37.3,52.5z"/>
<path d="M59.4,61.1h-0.3c-1-0.1-2.1-0.3-3.4-0.7c-0.5-0.2-1.1,0.1-1.3,0.6s0.1,1.1,0.6,1.3c1.4,0.5,2.7,0.7,3.8,0.8h0.3
	c0,0,0,0,0.1,0c0.5,0,1-0.4,1-0.9C60.4,61.6,60,61.1,59.4,61.1z"/>
<path d="M52.2,58.9c-1.1-0.5-2.2-1-3.6-1.7c-0.5-0.2-1.1,0-1.3,0.5s0,1.1,0.5,1.3c1.4,0.7,2.5,1.2,3.6,1.7c0.1,0.1,0.3,0.1,0.4,0.1
	c0.4,0,0.7-0.2,0.9-0.6C52.9,59.7,52.7,59.1,52.2,58.9z"/>
<path d="M66.8,59.7c-1.2,0.5-2.4,0.9-3.6,1.1c-0.5,0.1-0.9,0.6-0.8,1.2c0.1,0.5,0.5,0.8,1,0.8c0.1,0,0.1,0,0.2,0
	c1.3-0.3,2.7-0.7,4-1.2c0.5-0.2,0.8-0.8,0.5-1.3C67.9,59.8,67.3,59.5,66.8,59.7z"/>
<path id="border" d="M68.4,10c-8.5,0-15.8,4.9-19.4,11.9l-8.3-10.6c-0.3-0.4-1-0.5-1.4-0.2L10.5,33.7c-0.4,0.3-0.5,1-0.2,1.4
	l42.5,54.6c0.2,0.3,0.5,0.4,0.8,0.4c0.2,0,0.4-0.1,0.6-0.2L83,67.4c0.2-0.2,0.3-0.4,0.4-0.7c0-0.3,0-0.5-0.2-0.7L73.1,53
	C82.8,50.8,90,42.1,90,31.8C90.1,19.8,80.4,10,68.4,10z M39.8,13.4L48.1,24c-0.9,2.4-1.4,5-1.4,7.8c0,3.4,0.8,6.6,2.2,9.4
	c-1,0.9-5.9,5.9-4.9,13.7c-1-0.4-1.8-0.8-2.6-1.1c-0.5-0.2-1.1,0-1.3,0.6c-0.2,0.5,0,1.1,0.6,1.3c1.1,0.4,3.9,1.7,3.9,1.7
	s0.3,1,0.5,1.6c2.7,7.5,0.6,13.8-0.6,16.5L28.9,55.6c0.3-0.2,0.6-0.4,0.9-0.6c0.5-0.3,0.7-0.9,0.4-1.4c-0.3-0.5-0.9-0.7-1.4-0.4
	c-0.4,0.2-0.8,0.5-1.2,0.8L12.5,34.6L39.8,13.4z M73,56c-0.9,0.7-1.9,1.4-2.8,2c-0.5,0.3-0.6,0.9-0.3,1.4c0.2,0.3,0.5,0.5,0.9,0.5
	c0.2,0,0.4,0,0.5-0.2c1-0.6,2-1.3,3-2.1l6.9,8.8L53.8,87.6l-8.2-10.5c1.1-2.1,4.4-9.7,1.1-18.9c-3-8.3,1.6-13.7,3.1-15.2
	c3.8,6.3,10.7,10.5,18.6,10.5c0.9,0,1.7-0.1,2.6-0.2L73,56z M68.4,51.5c-10.9,0-19.7-8.9-19.7-19.7S57.5,12,68.4,12
	s19.7,8.9,19.7,19.7S79.3,51.5,68.4,51.5z"/>
<path id="compass_x5F_intern" d="M68.4,14.1c-9.7,0-17.7,7.9-17.7,17.7c0,2.9,2.1,17.1,17.7,17.8c9.7,0.4,17.7-7.9,17.7-17.7
	S78.1,14.1,68.4,14.1z M56.8,21.2l1.6,1.6c0.2,0.2,0.5,0.3,0.7,0.3s0.5-0.1,0.7-0.3c0.4-0.4,0.4-1,0-1.4l-1.6-1.6
	c2.5-2.2,5.7-3.5,9.3-3.7v2.3c0,0.6,0.4,1,1,1s1-0.4,1-1v-2.3c3.6,0.3,6.9,1.7,9.5,4.1l-1.7,1.7c-0.4,0.4-0.4,1,0,1.4
	c0.2,0.2,0.5,0.3,0.7,0.3s0.5-0.1,0.7-0.3l1.7-1.7c2.1,2.4,3.4,5.5,3.7,8.8h-2.2c-0.6,0-1,0.4-1,1c0,0.6,0.4,1,1,1H84
	c-0.2,3.6-1.5,6.9-3.7,9.5l-1.4-1.4c-0.4-0.4-1-0.4-1.4,0s-0.4,1,0,1.4l1.4,1.4c-2.5,2.3-5.8,3.8-9.4,4v-2c0-0.6-0.4-1-1-1
	s-1,0.4-1,1v2c-3.5-0.2-6.7-1.5-9.2-3.7l1.3-1.3c0.4-0.4,0.4-1,0-1.4s-1-0.4-1.4,0l-1.4,1.4c-2.4-2.6-3.9-6.1-4.1-9.9h2.1
	c0.6,0,1-0.4,1-1s-0.4-1-1-1h-2.1C53.1,26.9,54.5,23.7,56.8,21.2z"/>
<path id="compass_x5F_pike_1_" d="M62.2,39.2c0.2,0,0.3,0,0.5-0.1l8.3-4.3c0.2-0.1,0.3-0.2,0.4-0.4l4.3-8.3c0.2-0.4,0.1-0.9-0.2-1.2
	c-0.3-0.3-0.8-0.4-1.2-0.2L66,29c-0.2,0.1-0.3,0.2-0.4,0.4l-4.3,8.3c-0.2,0.4-0.1,0.9,0.2,1.2C61.7,39.1,61.9,39.2,62.2,39.2z
	 M67.2,30.6l5.3-2.7l-2.7,5.3l-5.3,2.7L67.2,30.6z"/>
</svg>
