<svg xmlns="http://www.w3.org/2000/svg" xmlns:xlink="http://www.w3.org/1999/xlink" version="1.1" x="0px" y="0px" viewBox="0 0 100 125" enable-background="new 0 0 100 100" xml:space="preserve"><path d="M66.477,24.948c-2.279-0.832-4.808-1.337-6.854,0.324c-1.129,0.917-1.909,2.294-2.26,3.698  c-0.53,1.368-0.551,2.944-0.51,4.392c0.144,5.081,4.073,11.865,9.718,12.306c5.623,0.44,8.44-4.908,8.473-9.844  C75.076,30.747,71.012,26.601,66.477,24.948z M65.943,39.373c0,0-1.888,1.025-3.991-0.647c0,0-1.996-1.295-2.751-4.666  c0,0-0.158-2.16,0.216-3.101c0,0,0.809-3.668,4.584-2.158c0,0,4.315,1.294,4.639,5.502C68.64,34.303,68.855,38.456,65.943,39.373z"/><path d="M66.885,34.212c-0.204-2.647-2.919-3.462-2.919-3.462c-2.375-0.95-2.884,1.358-2.884,1.358  c-0.236,0.592-0.136,1.951-0.136,1.951c0.475,2.121,1.729,2.936,1.729,2.936c1.324,1.052,2.512,0.407,2.512,0.407  C67.021,36.825,66.885,34.212,66.885,34.212z M62.526,33.779c-0.514,0-0.931-0.417-0.931-0.93c0-0.514,0.417-0.93,0.931-0.93  s0.93,0.417,0.93,0.93C63.456,33.362,63.04,33.779,62.526,33.779z"/><g><path d="M47.467,48.071c1.756,1.073,5.995,0,5.995,0c3.824-1.964-0.724-4.754-0.724-4.754c-2.998-1.343-5.788,0.517-5.788,0.517   C43.126,46.831,47.467,48.071,47.467,48.071z M47.533,44.295c0.764-0.409,1.594-0.348,1.854,0.137   c0.261,0.486-0.147,1.211-0.911,1.621c-0.764,0.41-1.595,0.349-1.855-0.137C46.36,45.431,46.769,44.706,47.533,44.295z"/><path d="M56.932,50.43c-1.967,1.967-4.069,2.928-6.248,3.008v-4.89h-1v4.852c-3.351-0.395-5.752-2.929-5.778-2.957l-0.733,0.68   c0.123,0.133,3.061,3.25,7.222,3.328c0.053,0.001,0.106,0.002,0.159,0.002c2.501,0,4.884-1.115,7.085-3.316L56.932,50.43z"/></g><path d="M72.769,73.852c2.208-0.219,3.753-0.949,3.753-0.949c6.354-2.338,2.838-7.975,2.838-7.975  c-0.703-1.637-3.532-4.237-3.532-4.237c-1.038-0.72-2.027-1.258-2.95-1.671c2.876-1.305,5.4-2.916,7.59-5.078  c4.414-4.36,6.748-10.279,6.748-17.117c0-5.126-1.737-9.737-5.255-14.063c1.569-2.001,2.514-4.516,2.514-7.256  c0-6.503-5.271-11.774-11.774-11.774c-4.683,0-8.715,2.741-10.612,6.699c0.001,0,0.002,0,0.003,0.001  c-3.728-0.976-7.674-1.495-11.747-1.495c-4.062,0-7.845,0.406-11.34,1.179c-1.958-3.786-5.892-6.384-10.448-6.384  c-6.503,0-11.774,5.271-11.774,11.774c0,2.612,0.865,5.013,2.304,6.966c-0.053,0.073-0.111,0.14-0.164,0.213  c-2.915,4.083-4.951,10.152-4.951,14.76c0,3.259,0.317,7.791,1.829,10.872c2.559,5.215,5.771,8.51,11.278,11.229  c-0.607,0.322-1.235,0.695-1.885,1.146c0,0-2.829,2.601-3.532,4.237c0,0-3.517,5.637,2.838,7.975c0,0,1.594,0.756,3.86,0.96  c-4.462,1.515-7.677,5.729-7.677,10.703c0,6.246,5.063,11.31,11.309,11.31c3.126,0,5.956-1.269,8.003-3.319  c0.407,0.146,5.028,1.744,11.34,1.744c3.067,0,6.534-0.389,10.104-1.497c2.023,1.9,4.738,3.072,7.732,3.072  c6.246,0,11.31-5.063,11.31-11.31C80.478,79.58,77.247,75.356,72.769,73.852z M16.697,47.876c-1.427-2.909-1.727-7.278-1.727-10.431  c0-4.419,1.959-10.25,4.765-14.179c6.228-8.721,16.812-13.33,30.608-13.33c12.031,0,22.968,4.535,30.005,12.441  c3.948,4.437,5.867,9.163,5.867,14.448c0,6.564-2.23,12.237-6.451,16.406c-4.279,4.227-9.951,6.304-17.148,8.122  c-3.552,0.896-8.258,1.431-12.59,1.431c-4.985,0-10.079-0.166-14.328-1.117c-1.703-0.475-3.311-0.983-4.835-1.546  C23.446,57.187,19.619,53.83,16.697,47.876z M31.99,94.444c-4.688,0-8.489-3.517-8.489-7.855c0-4.338,3.801-7.855,8.489-7.855  c4.687,0,8.488,3.518,8.488,7.855C40.478,90.928,36.677,94.444,31.99,94.444z M41.903,90.007c0.888-1.614,1.396-3.468,1.396-5.441  c0-5.891-4.504-10.725-10.256-11.257c1.242-0.433,2.508-1.124,3.718-2.229c0,0,3.921-3.774,3.522-7.685  c3.128,0.314,6.46,0.388,9.742,0.388c3.632,0,7.518-0.375,10.805-1.018c-0.936,4.124,3.428,8.314,3.428,8.314  c1.217,1.111,2.49,1.805,3.739,2.236c-5.696,0.586-10.139,5.398-10.139,11.249c0,2.084,0.573,4.029,1.557,5.706  C51.612,92.336,44.389,90.708,41.903,90.007z M69.169,94.444c-4.688,0-8.489-3.517-8.489-7.855c0-4.338,3.801-7.855,8.489-7.855  c4.688,0,8.488,3.518,8.488,7.855C77.657,90.928,73.856,94.444,69.169,94.444z"/><path d="M43.869,28.97c-0.35-1.403-1.13-2.781-2.259-3.698c-2.046-1.662-4.575-1.156-6.855-0.324  c-4.535,1.653-8.599,5.799-8.566,10.875c0.032,4.937,2.85,10.284,8.473,9.844c5.645-0.441,9.575-7.226,9.718-12.306  C44.419,31.914,44.4,30.337,43.869,28.97z M42.053,34.06c-0.754,3.371-2.75,4.666-2.75,4.666c-2.104,1.672-3.992,0.647-3.992,0.647  c-2.912-0.917-2.697-5.07-2.697-5.07c0.324-4.208,4.639-5.502,4.639-5.502c3.776-1.51,4.584,2.158,4.584,2.158  C42.212,31.899,42.053,34.06,42.053,34.06z"/><path d="M40.173,32.108c0,0-0.509-2.308-2.884-1.358c0,0-2.715,0.815-2.918,3.462c0,0-0.136,2.613,1.697,3.19  c0,0,1.188,0.645,2.511-0.407c0,0,1.256-0.815,1.73-2.936C40.309,34.06,40.409,32.701,40.173,32.108z M38.279,33.779  c-0.514,0-0.93-0.417-0.93-0.93c0-0.514,0.417-0.93,0.93-0.93s0.93,0.417,0.93,0.93C39.209,33.362,38.793,33.779,38.279,33.779z"/><text x="0" y="115" fill="#000000" font-size="5px" font-weight="bold" font-family="'Helvetica Neue', Helvetica, Arial-Unicode, Arial, Sans-serif">Created by Shraddha Surana</text><text x="0" y="120" fill="#000000" font-size="5px" font-weight="bold" font-family="'Helvetica Neue', Helvetica, Arial-Unicode, Arial, Sans-serif">from the Noun Project</text></svg>