<svg xmlns="http://www.w3.org/2000/svg" xmlns:xlink="http://www.w3.org/1999/xlink" version="1.1" preserveAspectRatio="none" x="0px" y="0px" viewBox="0 0 100 125"><defs><g id="a"><path fill="#000000" stroke="none" d=" M 53.55 47.3 Q 56.25 44.65 60.65 40.4 71.4 29.5 71.4 27.2 71.4 21.8 64.7 25.95 58.85 29.55 50 38.95 49.15 39.85 48.3 40.8 41.75 33 37.35 29.9 31.65 25.85 31.65 31.25 31.65 32.15 38.9 41 41.4 44.1 43.3 46.45 38.9 51.65 35.3 56.8 28.6 66.35 28.6 70.2 28.6 70.3 29.1 72.75 29.95 75.15 31.6 75.15 34.95 70.5 38.75 65.2 45.3 56.1 48.25 52.65 48.85 53.45 49.15 53.85 49.15 53.9 56.95 66.7 62.55 75.9 64.25 75.9 66.2 75.9 67.3 74.65 68.15 73.65 68.15 72.45 68.15 69.25 62.45 60.1 58.45 53.7 53.55 47.3 Z"/></g></defs><g transform="matrix( 1, 0, 0, 1, 0,0) "><use xlink:href="#a"/></g><text x="0" y="115" fill="#000000" font-size="5px" font-weight="bold" font-family="'Helvetica Neue', Helvetica, Arial-Unicode, Arial, Sans-serif">Created by Pencil</text><text x="0" y="120" fill="#000000" font-size="5px" font-weight="bold" font-family="'Helvetica Neue', Helvetica, Arial-Unicode, Arial, Sans-serif">from the Noun Project</text></svg>