<svg xmlns="http://www.w3.org/2000/svg" xmlns:xlink="http://www.w3.org/1999/xlink" version="1.1" x="0px" y="0px" viewBox="0 0 100 125" enable-background="new 0 0 100 100" xml:space="preserve"><path d="M90.852,62.385c-4.994-5.926-9.316-11.051-13.237-15.344v-0.044h-0.04c-2.821-3.087-5.434-5.74-7.931-7.936  c0.827-0.083,1.599-0.565,2.011-1.358l2.366,1.23c0,0,4.657-3.324,1.123-7.948c-1.371-1.794-4.578-3.554-8.9-5.731  c0.306-1.253,0.53-2.328,0.681-3.234c0.118-0.01,0.238-0.042,0.352-0.1l4.824-2.51c0.452-0.235,0.629-0.792,0.393-1.244  c-0.232-0.451-0.79-0.625-1.243-0.392l-4.089,2.125c0.017-0.383,0.006-0.706-0.024-0.984c1.323,0.334,2.747-0.262,3.401-1.521  c0.767-1.475,0.192-3.291-1.282-4.056c-1.473-0.764-3.289-0.192-4.056,1.283c-0.561,1.08-0.396,2.339,0.307,3.239  c-0.198,0.105-0.411,0.244-0.631,0.412l-0.508-3.799c-0.068-0.506-0.531-0.86-1.037-0.792c-0.503,0.068-0.858,0.531-0.79,1.037  l0.684,5.117c-0.796,0.865-1.594,1.865-2.276,2.77c-0.868-0.438-1.756-0.891-2.673-1.367l-2.129,4.098l-5.399-0.922  c-0.788-1.455-2.355-2.955-5.482-2.588c-2.243,0.263-5.393,2.121-9.473,4.725c-0.922-0.903-1.729-1.645-2.433-2.237  c0.054-0.106,0.086-0.226,0.093-0.352l0.307-5.431c0.03-0.509-0.36-0.944-0.868-0.973c-0.507-0.03-0.943,0.36-0.971,0.869  l-0.261,4.601c-0.322-0.209-0.605-0.365-0.86-0.48c0.961-0.966,1.178-2.496,0.428-3.704c-0.875-1.411-2.73-1.845-4.142-0.968  c-1.41,0.876-1.844,2.729-0.968,4.142c0.642,1.032,1.808,1.535,2.941,1.39c-0.011,0.224,0.001,0.477,0.031,0.752l-3.526-1.503  c-0.467-0.2-1.009,0.017-1.209,0.486c-0.199,0.469,0.019,1.009,0.487,1.21l4.749,2.025c0.338,1.126,0.79,2.323,1.218,3.373  c-0.819,0.523-1.664,1.055-2.54,1.599l2.346,3.778l-2.209,3.184c-1.293-0.75-3.104-1.083-5.406,0.255  c-1.953,1.136-4.1,4.095-6.803,8.11c-1.206-0.461-2.242-0.819-3.122-1.082c0.005-0.119-0.011-0.241-0.056-0.36l-1.884-5.102  c-0.176-0.478-0.706-0.722-1.186-0.546c-0.476,0.175-0.72,0.706-0.545,1.184L11,45.092c-0.378-0.065-0.7-0.093-0.979-0.099  c0.496-1.27,0.084-2.758-1.084-3.566c-1.366-0.944-3.239-0.603-4.184,0.763c-0.944,1.367-0.603,3.24,0.763,4.185  c1,0.691,2.271,0.686,3.251,0.102c0.079,0.21,0.191,0.438,0.329,0.677l-3.833,0.028c-0.509,0.004-0.92,0.419-0.917,0.929  c0.005,0.509,0.42,0.918,0.93,0.915l5.163-0.036c0.759,0.897,1.65,1.815,2.462,2.606c-0.543,0.807-1.104,1.633-1.692,2.479  l6.946,4.805c0.76,0.526,1.703,0.573,2.491,0.22C13.642,70.804,9.134,82,9.089,82.114l0.929,0.371  c0.057-0.143,1.884-4.657,5.002-10.92v10.352h1V69.585c1.491-2.911,3.225-6.11,5.159-9.373v21.705h1V58.55  c1.603-2.625,3.33-5.265,5.16-7.806v31.173h1V49.38c1.647-2.208,3.371-4.321,5.159-6.261v38.798h1v-39.86  c1.672-1.73,3.396-3.297,5.16-4.644v44.504h1V36.675c1.689-1.197,3.412-2.182,5.159-2.902v48.144h1V33.392  c0.884-0.311,1.774-0.557,2.668-0.721c0.845-0.155,1.674-0.25,2.492-0.293v49.54h0.999V32.352c1.76,0.005,3.468,0.281,5.16,0.805  v48.76h1v-48.42c1.715,0.635,3.422,1.525,5.158,2.679v45.742h1V36.868c1.674,1.196,3.383,2.627,5.159,4.282v40.767h1V42.095  c1.649,1.59,3.361,3.37,5.161,5.332v34.49h1V48.526c1.658,1.836,3.396,3.826,5.227,5.957h-0.068v27.434h1V55.569  c1.639,1.918,3.356,3.951,5.16,6.091v20.257h1v-19.07c0.052,0.062,0.102,0.121,0.154,0.183c1.573,1.867,3.214,3.814,4.93,5.839  l0.764-0.646C94.064,66.197,92.425,64.252,90.852,62.385z M58.902,31.079l8.229,4.274c-0.235,0.453-0.316,0.943-0.271,1.416  c-3.01-2.296-5.902-3.879-8.862-4.719C58.367,31.817,58.688,31.495,58.902,31.079z M44.929,30.943  c0.575,0.925,1.645,1.347,2.652,1.15c-3.369,0.961-6.805,2.935-10.294,5.907c0.239-0.699,0.185-1.49-0.235-2.165L44.929,30.943z   M26.328,47.061c0.679,0.469,1.502,0.554,2.23,0.319c-2.125,2.744-4.265,5.849-6.417,9.29c-0.035-0.768-0.405-1.512-1.086-1.982  L26.328,47.061z M30.303,45.199c0.082-0.886-0.293-1.788-1.078-2.329l1.518-2.194c0,0-0.517-0.959-1.517-1.797l1.963-2.828  l1.534,2.47c0.586,0.947,1.693,1.363,2.722,1.132C33.743,41.265,32.028,43.12,30.303,45.199z M49.304,31.688  c-0.537,0.099-1.077,0.227-1.617,0.378c0.258-0.062,0.512-0.154,0.75-0.301c1.197-0.742,1.563-2.313,0.82-3.508l2.267-1.407  c0,0-0.051-0.578-0.303-1.342l4.441,0.758l-1.28,2.465c-0.465,0.894-0.339,1.934,0.227,2.693  C52.895,31.27,51.139,31.351,49.304,31.688z"/><text x="0" y="115" fill="#000000" font-size="5px" font-weight="bold" font-family="'Helvetica Neue', Helvetica, Arial-Unicode, Arial, Sans-serif">Created by Adrian Waskin</text><text x="0" y="120" fill="#000000" font-size="5px" font-weight="bold" font-family="'Helvetica Neue', Helvetica, Arial-Unicode, Arial, Sans-serif">from the Noun Project</text></svg>