<svg xmlns="http://www.w3.org/2000/svg" xmlns:xlink="http://www.w3.org/1999/xlink" version="1.1" x="0px" y="0px" viewBox="0 0 100 125" style="enable-background:new 0 0 100 100;" xml:space="preserve"><path d="M71.6578369,48.0067749c2.2706299-10.4866333-0.8614502-21.2211914-8.4625244-28.8222046  c-12.2265625-12.2265625-32.1191406-12.2265625-44.3457031,0s-12.2265625,32.1191406,0,44.3457031  c5.9316406,5.9316406,14.0146484,9.1728516,22.2539062,9.1728516c2.3254395,0,4.6623535-0.2717285,6.9677734-0.8006592  C49.5349121,82.1157227,58.3172607,90,68.9287109,90c11.6318359,0,21.0947266-9.4638672,21.0947266-21.0957031  C90.0234375,58.1994019,82.0019531,49.3520508,71.6578369,48.0067749z M68.9287109,47.8095703  c-5.5478516,0-10.5871582,2.1690674-14.3570557,5.6829834L42.4365234,41.3574219l7.2790527-7.2790527  c5.6331787,5.3103638,12.8828125,8.493103,20.6070557,9.0444336c-0.0981445,1.5727539-0.3172607,3.1509399-0.6724854,4.7233276  C69.4086914,47.8378906,69.1722412,47.8095703,68.9287109,47.8095703z M32.3293457,48.6364746  c-5.6293945-5.3068237-12.8730469-8.4888306-20.5915527-9.043335c0.3944092-6.6082153,3.0075684-13.1033325,7.836792-18.2695312  l20.0338135,20.0338135L32.3293457,48.6364746z M20.9887695,19.9096069  c5.1665039-4.8288574,11.661377-7.4417114,18.2694092-7.8360596c0.5546875,7.7180786,3.7366943,14.9615479,9.043335,20.5907593  l-7.2790527,7.2790527L20.9887695,19.9096069z M49.7155762,31.2502441  c-4.9455566-5.2658691-7.9185791-12.0255127-8.4567871-19.2299805c7.1270752,0.0568848,14.2329102,2.6885376,19.7973633,7.8893433  L49.7155762,31.2502441z M70.3811035,41.1226196c-7.2124023-0.5339966-13.9803467-3.5077515-19.2514648-8.458313  L62.4658203,21.328125C67.5754395,26.7896729,70.3398438,33.8232422,70.3811035,41.1226196z M11.6845703,41.5936279  c7.204834,0.538208,13.9645996,3.5111084,19.2307129,8.4569092L19.574585,61.3912354  C14.373291,55.8270874,11.7414551,48.7210083,11.6845703,41.5936279z M20.9941406,62.7997437l11.3352051-11.335144  c4.9462891,5.2666626,7.9194336,12.0274048,8.4570312,19.2331543C33.5095215,70.6201172,26.3937988,67.836853,20.9941406,62.7997437  z M42.7871094,70.6481934c-0.5531006-7.7207642-3.7355957-14.9667358-9.0437012-20.5976562l7.2790527-7.2790527  l12.1522217,12.1522217c-3.3111572,3.7265625-5.3416748,8.6151123-5.3416748,13.9805908  c0,0.3352051,0.034668,0.6616211,0.050293,0.9931641C46.1972656,70.3005371,44.4925537,70.5499268,42.7871094,70.6481934z   M82.7819824,82.0074463c-0.0905762-0.1092529-0.1878662-0.2128906-0.276123-0.3238525  c-0.3427734-0.4335938-0.9726562-0.5078125-1.4042969-0.1621094c-0.4326172,0.3427734-0.5058594,0.9716797-0.1621094,1.4042969  c0.1264648,0.1599121,0.2655029,0.3085938,0.3963623,0.4645996C77.9951172,86.2563477,73.6652832,88,68.9287109,88  c-4.7363281,0-9.0662842-1.7436523-12.4072266-4.609375c0.1309814-0.1561279,0.2698975-0.3051758,0.3964844-0.4648438  c0.34375-0.4326172,0.2705078-1.0615234-0.1621094-1.4042969c-0.4316406-0.3447266-1.0615234-0.2705078-1.4042969,0.1621094  c-0.0882568,0.1113281-0.1856689,0.2148438-0.2763672,0.3240967c-3.2397461-3.4234619-5.2421875-8.0292969-5.2421875-13.1033936  c0-5.0739746,2.0024414-9.6795654,5.2419434-13.1027222c0.0908203,0.109436,0.1882324,0.2130737,0.2766113,0.3244019  c0.1972656,0.2490234,0.4892578,0.3789062,0.7841797,0.3789062c0.2177734,0,0.4365234-0.0703125,0.6201172-0.2167969  c0.4326172-0.3427734,0.5058594-0.9716797,0.1621094-1.4042969c-0.126709-0.159729-0.265625-0.3088989-0.3967285-0.4651489  c3.3410645-2.8656006,7.6708984-4.6090698,12.4074707-4.6090698s9.0664062,1.7435913,12.4072266,4.609314  c-0.1308594,0.1560669-0.2700195,0.3049927-0.3964844,0.4649048c-0.34375,0.4326172-0.2705078,1.0615234,0.1621094,1.4042969  c0.1835938,0.1464844,0.4023438,0.2167969,0.6201172,0.2167969c0.2949219,0,0.5869141-0.1298828,0.7841797-0.3789062  c0.0883789-0.111084,0.185791-0.2147827,0.2763672-0.3241577c3.2391357,3.4231567,5.2412109,8.0286865,5.2412109,13.102478  C88.0234375,73.9782715,86.0212402,78.5841064,82.7819824,82.0074463z"/><path d="M78.4990234,73.1914062c-0.1787109-0.8417969-0.3046875-1.7011719-0.375-2.5537109  c-0.0458984-0.5498047-0.5302734-0.9541016-1.0791016-0.9150391c-0.5507812,0.0458984-0.9599609,0.5292969-0.9150391,1.0791016  c0.078125,0.9375,0.2167969,1.8808594,0.4121094,2.8037109c0.0996094,0.4707031,0.515625,0.7929688,0.9775391,0.7929688  c0.0683594,0,0.1386719-0.0068359,0.2080078-0.0214844C78.2685547,74.2617188,78.6132812,73.7314453,78.4990234,73.1914062z"/><path d="M79.4941406,76.4833984c-0.2041016-0.5146484-0.7871094-0.7626953-1.2988281-0.5605469  c-0.5126953,0.2041016-0.7636719,0.7851562-0.5605469,1.2988281c0.3466797,0.8740234,0.7539062,1.7363281,1.2099609,2.5625  c0.1826172,0.3310547,0.5244141,0.5175781,0.8769531,0.5175781c0.1630859,0,0.3291016-0.0400391,0.4814453-0.1240234  c0.484375-0.2666016,0.6601562-0.875,0.3935547-1.3583984C80.1806641,78.0654297,79.8095703,77.2792969,79.4941406,76.4833984z"/><path d="M78.1894531,61.9003906c0.1210938,0.0478516,0.2460938,0.0703125,0.3691406,0.0703125  c0.3974609,0,0.7734375-0.2392578,0.9296875-0.6308594c0.3164062-0.796875,0.6865234-1.5830078,1.1015625-2.3369141  c0.2666016-0.484375,0.0898438-1.0927734-0.3935547-1.3583984c-0.4853516-0.265625-1.0927734-0.0908203-1.3583984,0.3935547  c-0.4550781,0.8271484-0.8623047,1.6904297-1.2089844,2.5634766C77.4257812,61.1152344,77.6767578,61.6962891,78.1894531,61.9003906  z"/><path d="M77.0429688,68.1044922c0.0273438,0.0019531,0.0556641,0.0029297,0.0830078,0.0029297  c0.515625,0,0.9521484-0.3955078,0.9960938-0.9179688c0.0703125-0.8564453,0.1962891-1.7167969,0.3730469-2.5566406  c0.1142578-0.5400391-0.2314453-1.0703125-0.7724609-1.1845703c-0.5390625-0.1132812-1.0703125,0.2314453-1.1845703,0.7724609  c-0.1943359,0.9208984-0.3320312,1.8642578-0.4101562,2.8046875C76.0830078,67.5751953,76.4921875,68.0585938,77.0429688,68.1044922  z"/><path d="M59.6679688,75.9101562c-0.5117188-0.2021484-1.09375,0.0478516-1.2988281,0.5605469  c-0.3164062,0.796875-0.6865234,1.5830078-1.1015625,2.3369141c-0.2666016,0.484375-0.0898438,1.0927734,0.3935547,1.3583984  c0.1533203,0.0839844,0.3183594,0.1240234,0.4814453,0.1240234c0.3525391,0,0.6953125-0.1865234,0.8769531-0.5175781  c0.4550781-0.8271484,0.8623047-1.6904297,1.2089844-2.5634766C60.4316406,76.6953125,60.1806641,76.1142578,59.6679688,75.9101562z  "/><path d="M59.3574219,64.6191406c0.1787109,0.8417969,0.3046875,1.7011719,0.375,2.5546875  c0.0439453,0.5224609,0.4804688,0.9179688,0.9960938,0.9179688c0.0273438,0,0.0556641-0.0009766,0.0830078-0.0029297  c0.5507812-0.0458984,0.9599609-0.5292969,0.9150391-1.0791016c-0.078125-0.9375-0.2167969-1.8818359-0.4121094-2.8046875  c-0.1142578-0.5400391-0.6474609-0.8837891-1.1855469-0.7714844C59.5878906,63.5488281,59.2431641,64.0791016,59.3574219,64.6191406  z"/><path d="M58.3632812,61.3261719c0.15625,0.3925781,0.5322266,0.6308594,0.9296875,0.6308594  c0.1230469,0,0.2480469-0.0224609,0.3691406-0.0703125c0.5126953-0.2041016,0.7636719-0.7851562,0.5605469-1.2988281  c-0.3466797-0.8740234-0.7539062-1.7363281-1.2099609-2.5625c-0.2675781-0.484375-0.8779297-0.6591797-1.3583984-0.3935547  c-0.484375,0.2666016-0.6601562,0.875-0.3935547,1.3583984C57.6767578,59.7441406,58.0478516,60.5302734,58.3632812,61.3261719z"/><path d="M60.8134766,69.7050781c-0.5410156-0.0429688-1.0322266,0.3652344-1.0791016,0.9150391  c-0.0703125,0.8564453-0.1962891,1.7167969-0.3730469,2.5566406c-0.1142578,0.5400391,0.2314453,1.0703125,0.7724609,1.1845703  c0.0693359,0.0146484,0.1386719,0.0214844,0.2070312,0.0214844c0.4628906,0,0.8779297-0.3232422,0.9775391-0.7939453  c0.1943359-0.9208984,0.3320312-1.8642578,0.4101562-2.8046875C61.7734375,70.234375,61.3642578,69.7509766,60.8134766,69.7050781z"/><text x="0" y="115" fill="#000000" font-size="5px" font-weight="bold" font-family="'Helvetica Neue', Helvetica, Arial-Unicode, Arial, Sans-serif">Created by Made by Made</text><text x="0" y="120" fill="#000000" font-size="5px" font-weight="bold" font-family="'Helvetica Neue', Helvetica, Arial-Unicode, Arial, Sans-serif">from the Noun Project</text></svg>