<svg xmlns="http://www.w3.org/2000/svg" xmlns:xlink="http://www.w3.org/1999/xlink" version="1.1" x="0px" y="0px" viewBox="0 0 100 125" style="enable-background:new 0 0 100 100;" xml:space="preserve"><g style="" display="none"><rect x="-1054.624" y="-407" style="" width="1293.624" height="1270.059" display="inline" fill="#666666" stroke="#000000" stroke-miterlimit="10"/></g><g><path d="M38.28,45.37c-4.9,0-8.89,3.99-8.89,8.89c0,4.9,3.99,8.89,8.89,8.89c4.91,0,8.9-3.99,8.9-8.89   C47.18,49.36,43.19,45.37,38.28,45.37z M38.28,57.07c-1.54,0-2.8-1.26-2.8-2.81c0-1.55,1.26-2.81,2.8-2.81   c1.55,0,2.81,1.26,2.81,2.81C41.09,55.81,39.83,57.07,38.28,57.07z"/><path d="M61.72,45.37c-4.9,0-8.89,3.99-8.89,8.89c0,4.9,3.99,8.89,8.89,8.89c4.9,0,8.89-3.99,8.89-8.89   C70.61,49.36,66.62,45.37,61.72,45.37z M61.72,57.07c-1.55,0-2.81-1.26-2.81-2.81c0-1.55,1.26-2.81,2.81-2.81   c1.55,0,2.81,1.26,2.81,2.81C64.53,55.81,63.27,57.07,61.72,57.07z"/><g><path d="M84.19,45.82h-6.11v-8.95c0.93-0.32,1.83-0.75,2.69-1.29c5.96-3.8,7.72-11.73,3.92-17.68c-1.39-2.19-3.39-3.89-5.76-4.9    c-1.14-0.49-2.34-0.78-3.55-0.93c-0.95-1.89-2.34-3.53-4.1-4.76c-5-3.5-11.66-2.92-15.99,1.05H39.35    c-9.61,0-17.43,7.82-17.43,17.43v19.15h-6.11c-3.73,0-6.77,3.03-6.77,6.76v6.84c0,5.61,4.57,10.17,10.18,10.17H22    c0.64,8,6.16,14.64,13.58,16.92v3.11c0,3.45,2.81,6.26,6.26,6.26c3.34,0,6.07-2.62,6.26-5.91c1.31-0.5,2.39-1.43,3.12-2.61h7.54    c9.83,0,17.95-7.38,19.15-16.89h2.87c5.61,0,10.18-4.56,10.18-10.18v-6.83C90.96,48.85,87.92,45.82,84.19,45.82z M21.34,55.63    l-1.62-2.16c-0.67-0.9-1.95-1.08-2.84-0.41c-0.9,0.67-1.08,1.95-0.41,2.84l4.87,6.49v2.27h-2.12c-3.38,0-6.12-2.75-6.12-6.12V51.7    c0-1.49,1.21-2.71,2.71-2.71h5.53V55.63z M48.09,83.23c0,1.21-0.99,2.2-2.2,2.2c-0.77,0-1.44-0.39-1.84-0.99v4.3    c0,1.21-0.99,2.2-2.21,2.2c-1.21,0-2.2-0.99-2.2-2.2V74.65h8.45V83.23z M74.03,67.16c0,8.41-6.85,15.26-15.27,15.26h-6.61v-8.03    h10.82v-4.05h-27.4l0.01,0.26v10.72c-5.62-2.25-9.6-7.75-9.6-14.16V25.79c0-7.38,5.99-13.38,13.37-13.38h11.7    c0.13,7.36,2.17,13.01,6.04,16.8c4,3.91,9.37,7.87,16.94,8.34V67.16z M74.03,34.01c-5.03,0-9.11-4.08-9.11-9.1    c0-0.41,0.04-0.8,0.09-1.19c-0.17-0.44-0.47-0.82-0.88-1.05c-0.28-0.16-0.59-0.26-0.92-0.28c-1.14-0.03-2.06,0.83-2.11,1.95    c-0.02,0.57,0.02,1.14,0.03,1.7c-0.04-0.12-0.09-0.21-0.15-0.28c-0.46-0.53-1.51-0.28-2.26-1.22c-0.6-0.75-1.32-1.56-1.77-2.4    c-0.95-1.74-2.01-4.16-1.57-6.19c0.24-1.13,0.71-2.2,1.39-3.17c2.76-3.95,8.23-4.92,12.18-2.15c0.7,0.49,1.32,1.08,1.84,1.74    c-1.32,0.33-2.6,0.85-3.78,1.6c-0.94,0.6-1.22,1.86-0.62,2.8c0.19,0.29,0.43,0.51,0.71,0.67c0.44,0.25,0.96,0.32,1.45,0.21    c1.53-1.16,3.42-1.85,5.48-1.85c5.02,0,9.1,4.08,9.1,9.11C83.13,29.93,79.05,34.01,74.03,34.01z M86.9,59.41    c0,3.38-2.74,6.13-6.12,6.13h-2.12v-2.28l4.87-6.48c0.67-0.9,0.49-2.17-0.41-2.84c-0.89-0.67-2.16-0.49-2.84,0.41l-1.62,2.16    v-6.64h5.53c1.5,0,2.71,1.22,2.71,2.71V59.41z"/></g></g><text x="0" y="115" fill="#000000" font-size="5px" font-weight="bold" font-family="'Helvetica Neue', Helvetica, Arial-Unicode, Arial, Sans-serif">Created by Oksana Latysheva</text><text x="0" y="120" fill="#000000" font-size="5px" font-weight="bold" font-family="'Helvetica Neue', Helvetica, Arial-Unicode, Arial, Sans-serif">from the Noun Project</text></svg>