<svg xmlns="http://www.w3.org/2000/svg" viewBox="0 0 79.88 80.1">
	<defs>
		<style>.cls-1{fill:#c60;}.cls-2{fill:#0cf;}.cls-3{fill:#80db4b;}.cls-4{fill:#ff3;}.cls-5{fill:red;}</style>
	</defs>
	<g id="intern">
		<path id="i_compass_out" class="cls-1" d="M58,1.38c-12.08,0-20.72,9.23-20.72,20.17S47.05,42.47,58,42.47s20.5-9.3,20.5-20.23S71.34,1.38,58,1.38Zm.51,37.49c-13,.7-17.69-12.09-17.49-17,.39-9.36,7.3-16.69,17-16.69s16.47,6.74,16.47,16.76S65.73,38.48,58.53,38.87Z"/>
		<path id="i_bot_map" class="cls-2" d="M61.21,42.54c-6.55,1.58-17.73-3.79-21.53-10.09-1.5,1.5-6.58,4.92-3.87,15.83a24.55,24.55,0,0,1-.9,19l8.62,11.23,28.26-22S71.41,55.64,61.21,42.54Z"/>
		<path id="i_upper_map" class="cls-3" d="M34.37,45.73C33.65,42.54,36,33.94,39,31.66c.31-.24-2.13-5.27-2.13-8.72a27.88,27.88,0,0,1,1.47-8.88L29.6,2.94,1.3,24.79l32.75,42C39.39,57.47,35,48.26,34.37,45.73Z"/>
		<polygon id="i_compass_pike" class="cls-4" points="54.06 26.22 59.78 23.31 62.69 17.59 56.97 20.39 54.06 26.22"/>
	</g>
	<path id="cross" class="cls-5" d="M23.43,24.44a10.55,10.55,0,0,0,1.15-1.68c1.16-1.78,1.87-2.67,1.78-3-.09-.72-.53-.72-1.42,0a17.5,17.5,0,0,0-2.58,3.1c-.09.18-.18.36-.35.36a11.55,11.55,0,0,0-2.67-1.87c-.89-.35-1.24-.26-1.15.45,0,.18.62.71,1.86,1.77a10.07,10.07,0,0,0,1.16,1A15.31,15.31,0,0,0,20,26.93a6.55,6.55,0,0,0-1,2.93,3,3,0,0,1,.17.45c.18.35.36.44.54.35.35-.71.71-1.42,1.15-2.22.71-1.33,1.16-2.31,1.51-2.84l.27.26s.62.8,1.95,2.4c1,1.16,1.6,1.69,1.87,1.69A.86.86,0,0,0,27,29.6c.09-.18.18-.36.09-.45a6.91,6.91,0,0,0-1.6-2.31A16.09,16.09,0,0,0,23.43,24.44Z"/>
	<g id="path">
		<path d="M27.17,42.5a12.46,12.46,0,0,0-4.2-.4,1,1,0,1,0,.1,1.9,12.64,12.64,0,0,1,3.7.4H27a1,1,0,0,0,1-.8A1.05,1.05,0,0,0,27.17,42.5Z"/>
		<path d="M49.27,51.1H49a17.16,17.16,0,0,1-3.4-.7,1,1,0,0,0-.7,1.9,15.23,15.23,0,0,0,3.8.8h.4a1,1,0,0,0,1-.9A.8.8,0,0,0,49.27,51.1Z"/>
		<path d="M42.07,48.9c-1.1-.5-2.2-1-3.6-1.7a1,1,0,1,0-.8,1.8c1.4.7,2.5,1.2,3.6,1.7a.6.6,0,0,0,.4.1,1,1,0,0,0,.9-.6A1,1,0,0,0,42.07,48.9Z"/>
		<path d="M56.67,49.7a16.51,16.51,0,0,1-3.6,1.1,1,1,0,0,0-.8,1.2,1,1,0,0,0,1,.8h.2a30.38,30.38,0,0,0,4-1.2.92.92,0,0,0,.5-1.3A1,1,0,0,0,56.67,49.7Z"/>
	</g>
	<path id="border" d="M58.27,0a21.84,21.84,0,0,0-19.4,11.9L30.57,1.3a1.08,1.08,0,0,0-1.4-.2L.37,23.7a1.08,1.08,0,0,0-.2,1.4l42.5,54.6a.91.91,0,0,0,.8.4,1.42,1.42,0,0,0,.6-.2l28.8-22.5a1.61,1.61,0,0,0,.4-.7.84.84,0,0,0-.2-.7L63,43a21.78,21.78,0,0,0-4.7-43ZM29.67,3.4,38,14a22.05,22.05,0,0,0-1.4,7.8,21,21,0,0,0,2.2,9.4,16.2,16.2,0,0,0-4.9,13.7c-1-.4-1.8-.8-2.6-1.1a1,1,0,0,0-.7,1.9c1.1.4,3.9,1.7,3.9,1.7s.3,1,.5,1.6a22.15,22.15,0,0,1-.6,16.5L18.77,45.6l.9-.6a1,1,0,0,0-1-1.8,8.34,8.34,0,0,0-1.2.8L2.37,24.6ZM62.87,46c-.9.7-1.9,1.4-2.8,2a1,1,0,0,0-.3,1.4,1.05,1.05,0,0,0,.9.5c.2,0,.4,0,.5-.2a27.3,27.3,0,0,0,3-2.1l6.9,8.8L43.67,77.6l-8.2-10.5a24.08,24.08,0,0,0,1.1-18.9A14.08,14.08,0,0,1,39.67,33a21.67,21.67,0,0,0,18.6,10.5,22.75,22.75,0,0,0,2.6-.2Zm-4.6-4.5A19.75,19.75,0,1,1,78,21.7,19.74,19.74,0,0,1,58.27,41.5Z"/>
	<path id="compass_intern" d="M58.27,4.1a17.73,17.73,0,0,0-17.7,17.7c0,2.92,2.08,17.1,17.7,17.8C68,40,76,31.7,76,21.9A17.82,17.82,0,0,0,58.27,4.1Zm-11.6,7.1,1.6,1.6a1,1,0,0,0,1.4,0,1,1,0,0,0,0-1.4l-1.6-1.6a15.16,15.16,0,0,1,9.3-3.7V8.4a1,1,0,0,0,2,0V6.1a15.79,15.79,0,0,1,9.5,4.1l-1.7,1.7a1,1,0,0,0,0,1.4,1,1,0,0,0,1.4,0l1.7-1.7A15.5,15.5,0,0,1,74,20.4h-2.2a1,1,0,0,0,0,2h2.1a16,16,0,0,1-3.7,9.5l-1.4-1.4a1,1,0,1,0-1.4,1.4l1.4,1.4a15.16,15.16,0,0,1-9.4,4v-2a1,1,0,0,0-2,0v2a15.12,15.12,0,0,1-9.2-3.7l1.3-1.3a1,1,0,0,0-1.4-1.4l-1.4,1.4a15.82,15.82,0,0,1-4.1-9.9h2.1a1,1,0,0,0,0-2h-2.1A16.18,16.18,0,0,1,46.67,11.2Z"/>
	<path id="compass_pike" d="M52.07,29.2a.9.9,0,0,0,.5-.1l8.3-4.3a.78.78,0,0,0,.4-.4l4.3-8.3a1,1,0,0,0-1.4-1.4L55.87,19a.78.78,0,0,0-.4.4l-4.3,8.3a1.06,1.06,0,0,0,.2,1.2A.91.91,0,0,0,52.07,29.2Zm5-8.6,5.3-2.7-2.7,5.3-5.3,2.7Z"/>
</svg>