<?xml version="1.0" encoding="utf-8"?>
<!-- Generator: Adobe Illustrator 23.1.0, SVG Export Plug-In . SVG Version: 6.00 Build 0)  -->
<svg version="1.1" id="Calque_1" xmlns="http://www.w3.org/2000/svg" xmlns:xlink="http://www.w3.org/1999/xlink" x="0px" y="0px"
	 viewBox="0 0 99.1 99.1" style="enable-background:new 0 0 99.1 99.1;" xml:space="preserve">
<style type="text/css">
	.st0{fill:#66FF99;}
	.st1{fill:#FF3333;}
	.st2{fill:#FFFF66;}
	.st3{fill:#99CCFF;}
</style>
<ellipse class="st0" cx="49.2" cy="49.6" rx="48.5" ry="48.2"/>
<title>ffd</title>
<g>
	<g id="Calque_1-2">
		<path d="M49.5,99.1C22.2,99.1,0,76.9,0,49.5S22.2,0,49.5,0s49.5,22.2,49.5,49.5c0,0,0,0,0,0C99,76.9,76.9,99,49.5,99.1z M49.5,1.8
			C23.2,1.8,1.8,23.2,1.8,49.5s21.4,47.7,47.7,47.7s47.7-21.4,47.7-47.7l0,0C97.2,23.2,75.9,1.9,49.5,1.8z M49.5,87
			C28.8,87.1,12,70.3,12,49.6C11.9,28.8,28.7,12,49.4,12S87,28.7,87,49.5c0,0,0,0,0,0.1C87,70.2,70.2,87,49.5,87L49.5,87z
			 M49.5,13.8c-19.7,0-35.7,16-35.7,35.7c0,19.7,16,35.7,35.7,35.7c19.7,0,35.7-16,35.7-35.7c0,0,0,0,0,0
			C85.2,29.8,69.2,13.9,49.5,13.8z"/>
		<path class="st1" d="M49.7,29.4c-3.6,0-7.1,1-10.1,2.8c0.3,0.5,0.5,1.1,0.5,1.7c0,1.6-1.3,2.9-3,2.9c-0.8,0-1.6-0.3-2.1-0.9
			c-7.6,8.1-7.1,20.9,1,28.5s20.9,7.1,28.5-1s7.1-20.9-1-28.5C59.7,31.3,54.8,29.4,49.7,29.4z M49.7,64.8c-8.4,0-15.3-6.8-15.3-15.2
			c0-6.3,3.9-12,9.8-14.3c0.8-1.4,2.6-1.9,3.9-1.1c0,0,0.1,0.1,0.1,0.1c0.5,0,0.9-0.1,1.4-0.1c8.4,0,15.3,6.8,15.3,15.3
			S58.1,64.8,49.7,64.8L49.7,64.8z"/>
		<path class="st2" d="M49.7,35.7h-0.2c0.2,0.4,0.2,0.8,0.2,1.2c0,1.6-1.4,2.9-3,2.9c-1.5,0-2.7-1.2-2.9-2.7
			c-6.9,3.2-9.9,11.5-6.7,18.4s11.5,9.9,18.4,6.7s9.9-11.5,6.7-18.4C60,38.8,55.1,35.7,49.7,35.7z M49.7,57.7c-2,0-4-0.8-5.5-2.2
			c-0.4,0.2-0.9,0.4-1.4,0.4c-1.6,0-2.9-1.3-2.9-2.9c0-1.2,0.7-2.2,1.8-2.7c0-0.2,0-0.4,0-0.6c0-4.5,3.6-8.1,8.1-8.1
			s8.1,3.6,8.1,8.1C57.8,54,54.2,57.7,49.7,57.7C49.7,57.7,49.7,57.7,49.7,57.7L49.7,57.7z"/>
		<path class="st3" d="M49.4,21.8c-15.3,0-27.6,12.3-27.7,27.6c0,12.8,7.9,27.6,28.7,27.6c12.3,0,23.1-9.1,25.9-21.7
			c3.3-14.9-6.1-29.6-21-32.9C53.4,22,51.3,21.8,49.4,21.8L49.4,21.8z M49.7,71.1c-11.9,0-21.5-9.6-21.5-21.5c0-5.6,2.2-11,6.1-15
			c-0.1-0.2-0.1-0.5-0.1-0.7c0-1.6,1.3-2.9,2.9-2.9c0.5,0,1,0.1,1.4,0.3c10.1-6.2,23.4-3,29.6,7.1s3,23.4-7.1,29.6
			C57.6,70,53.7,71.1,49.7,71.1z"/>
		<path d="M78.8,83.8c1.6,0,2.9-1.3,2.9-2.9c0-1.6-1.3-2.9-2.9-2.9c-1.6,0-2.9,1.3-2.9,2.9S77.1,83.8,78.8,83.8
			C78.8,83.8,78.8,83.8,78.8,83.8z"/>
	</g>
</g>
</svg>
