<svg xmlns="http://www.w3.org/2000/svg" viewBox="0 0 39.34 44.45"><title>Fichier 1</title><g id="Calque_2" data-name="Calque 2"><g id="Calque_1-2" data-name="Calque 1"><path d="M33.57,10.87a1.49,1.49,0,0,0-2.12,0,1.51,1.51,0,0,0,0,2.12A16.67,16.67,0,1,1,7.87,13,16.23,16.23,0,0,1,21.58,8.56l-3.35,3.53a1.5,1.5,0,0,0,.06,2.12,1.5,1.5,0,0,0,2.12-.06l5.33-5.62,0,0A1.41,1.41,0,0,0,26,8.05a.14.14,0,0,0,0-.06,1.43,1.43,0,0,0,.09-.5V7.43a1.46,1.46,0,0,0-.12-.5.14.14,0,0,0,0-.06,1.47,1.47,0,0,0-.24-.37L20.44.5a1.5,1.5,0,1,0-2.24,2l2.64,3A19,19,0,0,0,5.75,10.87a19.68,19.68,0,1,0,27.82,0Z"/></g></g></svg>