<svg xmlns="http://www.w3.org/2000/svg" viewBox="0 0 80.39 79.95"><defs><style>.cls-1{fill:#ff6;}.cls-2{fill:#f63;}</style></defs><title>sport</title><g id="Calque_2" data-name="Calque 2"><g id="Calque_1-2" data-name="Calque 1"><circle id="bot_ball" class="cls-1" cx="59.29" cy="58.85" r="20.03"/><path class="cls-2" d="M59.29,38.82c.36,0,.71,0,1.07.06a30.23,30.23,0,1,0-21,21.25c0-.42-.06-.85-.06-1.28A20,20,0,0,1,59.29,38.82Z"/><path d="M62.09,38a31.07,31.07,0,0,0-8.5-28.8,31.36,31.36,0,0,0-44.4,44.3,31.65,31.65,0,0,0,22.3,9.2,33.4,33.4,0,0,0,7-.8A21.06,21.06,0,1,0,62.09,38Zm-2.8-.2a21.33,21.33,0,0,0-14.4,5.7l-12.1-12.1,7.3-7.3a33.13,33.13,0,0,0,20.6,9,24.22,24.22,0,0,1-.7,4.7Zm-36.6.8a33.13,33.13,0,0,0-20.6-9,29.55,29.55,0,0,1,7.8-18.3l20,20ZM11.39,9.85a29.55,29.55,0,0,1,18.3-7.8,33.69,33.69,0,0,0,9,20.6l-7.3,7.2Zm28.7,11.4a32.14,32.14,0,0,1-8.5-19.2A29.61,29.61,0,0,1,51.39,10Zm20.7,9.8a31.27,31.27,0,0,1-19.3-8.5l11.3-11.3A29.15,29.15,0,0,1,60.79,31.05Zm-58.7.5a30.77,30.77,0,0,1,19.2,8.5L10,51.35A29.13,29.13,0,0,1,2.09,31.55Zm9.3,21.2,11.3-11.3a32.14,32.14,0,0,1,8.5,19.2A29.81,29.81,0,0,1,11.39,52.75Zm21.8,7.8a33.69,33.69,0,0,0-9-20.6l7.3-7.3,12.2,12.2a20.94,20.94,0,0,0-5.3,14,3.4,3.4,0,0,0,.1,1A35.14,35.14,0,0,1,33.19,60.55Zm40,11.4-.3-.3a1,1,0,0,0-1.6,1.2c.1.2.3.3.4.5A18.59,18.59,0,0,1,59.29,78a18.78,18.78,0,0,1-12.4-4.6c.1-.2.3-.3.4-.5a1,1,0,0,0-1.6-1.2l-.3.3a19.1,19.1,0,0,1,0-26.2l.3.3a1.23,1.23,0,0,0,.8.4,1.42,1.42,0,0,0,.6-.2,1.08,1.08,0,0,0,.2-1.4c-.1-.2-.3-.3-.4-.5a19,19,0,0,1,24.8,0c-.1.2-.3.3-.4.5a1,1,0,0,0,.2,1.4,1.42,1.42,0,0,0,.6.2.91.91,0,0,0,.8-.4l.3-.3a19.1,19.1,0,0,1,0,26.2Z"/><path d="M68.89,63.15a20.24,20.24,0,0,1-.4-2.6,1,1,0,0,0-1.1-.9.9.9,0,0,0-.9,1.1,27,27,0,0,0,.4,2.8,1,1,0,0,0,1,.8h.2A1,1,0,0,0,68.89,63.15Z"/><path d="M71,68.75a24,24,0,0,1-1.1-2.3,1,1,0,0,0-1.9.7c.3.9.8,1.7,1.2,2.6a1.05,1.05,0,0,0,.9.5.9.9,0,0,0,.5-.1A1,1,0,0,0,71,68.75Z"/><path d="M68.59,51.85c.1,0,.2.1.4.1a.87.87,0,0,0,.9-.6,16.27,16.27,0,0,1,1.1-2.3,1,1,0,0,0-1.8-1,12.27,12.27,0,0,0-1.2,2.6A1,1,0,0,0,68.59,51.85Z"/><path d="M67.39,58.05h0a1.09,1.09,0,0,0,1.1-.9,23.36,23.36,0,0,1,.4-2.6,1,1,0,1,0-2-.4,27,27,0,0,0-.4,2.8A1,1,0,0,0,67.39,58.05Z"/><path d="M50.09,65.85a1,1,0,0,0-1.3.6,16.27,16.27,0,0,1-1.1,2.3,1,1,0,0,0,.4,1.4.9.9,0,0,0,.5.1,1.05,1.05,0,0,0,.9-.5,12.27,12.27,0,0,0,1.2-2.6A1.14,1.14,0,0,0,50.09,65.85Z"/><path d="M49.79,54.55a20.24,20.24,0,0,1,.4,2.6,1,1,0,0,0,1,.9h.1a.9.9,0,0,0,.9-1.1,27,27,0,0,0-.4-2.8,1,1,0,0,0-1.2-.8A1,1,0,0,0,49.79,54.55Z"/><path d="M48.79,51.25a1,1,0,0,0,.9.6.76.76,0,0,0,.4-.1,1,1,0,0,0,.6-1.3c-.3-.9-.8-1.7-1.2-2.6a1,1,0,0,0-1.8,1C48.09,49.65,48.39,50.45,48.79,51.25Z"/><path d="M51.19,59.65a1.17,1.17,0,0,0-1.1.9,23.36,23.36,0,0,1-.4,2.6,1,1,0,0,0,.8,1.2h.2a1,1,0,0,0,1-.8,27,27,0,0,0,.4-2.8A.94.94,0,0,0,51.19,59.65Z"/></g></g></svg>