<svg xmlns="http://www.w3.org/2000/svg" viewBox="0 0 82 90"><defs><style>.cls-1{fill:#9c9;}.cls-2{fill:#ffc;}.cls-3{fill:#c66;}.cls-4{fill:#fc9;}</style></defs><title>Fichier 1</title><g id="Calque_2" data-name="Calque 2"><g id="Calque_1-2" data-name="Calque 1"><path id="left_ear" class="cls-1" d="M12.71,43.11H6.51a3,3,0,0,0-2.93,3v7.66a6.83,6.83,0,0,0,6.87,6.88h2.37V58.1"/><path id="face" class="cls-1" d="M43.25,78.2H50A15.64,15.64,0,0,0,65.65,62.55V32.47C48.26,26.44,43.49,9.84,42,6.69h-12A13.7,13.7,0,0,0,16.35,20.4V62.76a15.77,15.77,0,0,0,9.82,14.52"/><path id="slim" class="cls-2" d="M30.38,85.4a2.59,2.59,0,0,0,5.17,0V80.34a2.56,2.56,0,0,0,4.71-1.41V68.82h-10V85.4Z"/><path id="right_ear" class="cls-3" d="M52.7,53.42a4,4,0,0,0,0-8,4,4,0,0,0-4,4A4.11,4.11,0,0,0,52.7,53.42Z"/><path id="left_eye" class="cls-3" d="M29.42,45.58a3.82,3.82,0,1,0,3.82,3.82A3.9,3.9,0,0,0,29.42,45.58Z"/><path id="right_ear-2" data-name="right_ear" class="cls-1" d="M75.43,44.76H69.62l-.1,16.48h2.21a6.41,6.41,0,0,0,6.45-6.45V47.61A2.69,2.69,0,0,0,75.43,44.76Z"/><path class="cls-4" d="M59.91,3.66C56.59,1.88,50.23,3.4,47.23,6c-4.37,3.82-1.66,12.52,3.84,18.65,4,4.51,13.74,7.84,19.82,3.86,5.83-3.81,4.4-15.82,1.11-16.8C66,9.9,62.93,5.28,59.91,3.66Z"/><path d="M29.3,40.5a8.9,8.9,0,1,0,8.9,8.9A8.92,8.92,0,0,0,29.3,40.5Zm0,11.7a2.8,2.8,0,1,1,2.8-2.8A2.86,2.86,0,0,1,29.3,52.2Z"/><path d="M52.7,40.5a8.9,8.9,0,1,0,8.9,8.9A8.92,8.92,0,0,0,52.7,40.5Zm0,11.7a2.8,2.8,0,1,1,2.8-2.8A2.8,2.8,0,0,1,52.7,52.2Z"/><path d="M75.2,40.9H69.1v-9a16.64,16.64,0,0,0,2.7-1.3,12.79,12.79,0,0,0,3.9-17.7A12.6,12.6,0,0,0,69.9,8a10.59,10.59,0,0,0-3.6-.9,12.57,12.57,0,0,0-4.1-4.8,12.8,12.8,0,0,0-16,1.1H30.3A17.41,17.41,0,0,0,12.9,20.8V39.9H6.8A6.81,6.81,0,0,0,0,46.7v6.8A10.24,10.24,0,0,0,10.2,63.7H13A19.34,19.34,0,0,0,26.6,80.6v3.1a6.31,6.31,0,0,0,12.6.4,6.09,6.09,0,0,0,3.1-2.6h7.5A19.25,19.25,0,0,0,68.9,64.6h2.9A10.09,10.09,0,0,0,82,54.5V47.7A6.81,6.81,0,0,0,75.2,40.9ZM12.3,50.7l-1.6-2.2a2,2,0,0,0-3.2,2.4l4.9,6.5v2.3H10.3a6.12,6.12,0,0,1-6.1-6.1V46.8a2.69,2.69,0,0,1,2.7-2.7h5.5C12.3,44.1,12.3,50.7,12.3,50.7ZM39.1,78.3a2.22,2.22,0,0,1-2.2,2.2,2.1,2.1,0,0,1-1.8-1v4.3a2.2,2.2,0,0,1-4.4,0v-14h8.5v8.5ZM65,62.3A15.3,15.3,0,0,1,49.7,77.6H43.1v-8H54V65.5H26.6v11A15.42,15.42,0,0,1,17,62.3V20.9A13.4,13.4,0,0,1,30.4,7.5H42c.1,7.4,2.2,13,6,16.8,4,3.9,9.4,7.9,16.9,8.3V62.3Zm0-33.2A9.13,9.13,0,0,1,55.9,20a4.87,4.87,0,0,1,.1-1.2,2.19,2.19,0,0,0-.9-1,1.61,1.61,0,0,0-.9-.3,2,2,0,0,0-2.1,2v1.7c0-.1-.1-.2-.2-.3-.5-.5-1.5-.3-2.3-1.2-.6-.8-1.3-1.6-1.8-2.4-1-1.7-2-4.2-1.6-6.2a8.25,8.25,0,0,1,1.4-3.2A8.78,8.78,0,0,1,59.8,5.8a9.76,9.76,0,0,1,1.8,1.7,14,14,0,0,0-3.8,1.6,2.07,2.07,0,0,0-.6,2.8,2.34,2.34,0,0,0,.7.7,1.76,1.76,0,0,0,1.4.2,8.73,8.73,0,0,1,5.5-1.9A9.13,9.13,0,0,1,73.9,20,8.78,8.78,0,0,1,65,29.1ZM77.9,54.5a6.06,6.06,0,0,1-6.1,6.1H69.7V58.3l4.9-6.5a2,2,0,1,0-3.2-2.4l-1.6,2.2V45h5.5A2.69,2.69,0,0,1,78,47.7C77.9,47.7,77.9,54.5,77.9,54.5Z"/></g></g></svg>