<?xml version="1.0" encoding="utf-8"?>
<!-- Generator: Adobe Illustrator 23.1.0, SVG Export Plug-In . SVG Version: 6.00 Build 0)  -->
<svg version="1.1" id="Calque_1" xmlns="http://www.w3.org/2000/svg" xmlns:xlink="http://www.w3.org/1999/xlink" x="0px" y="0px"
	 viewBox="0 0 100 125" style="enable-background:new 0 0 100 125;" xml:space="preserve">
<style type="text/css">
	.st0{fill:#99CC99;}
	.st1{fill:#FFFFCC;}
	.st2{fill:#CC6666;}
	.st3{fill:#FFCC99;}
</style>
<g>
	<path id="left_x5F_ear_1_" class="st0" d="M21.7,48h-6.2c-1.6,0-2.9,1.4-2.9,3v7.7c0,3.8,3,6.9,6.9,6.9h2.4V63"/>
	<path id="face" class="st0" d="M52.3,83.1H59c8.6,0,15.7-7,15.7-15.7V37.4c-17.4-6-22.2-22.6-23.6-25.8h-12
		c-7.6,0-13.7,6.1-13.7,13.7v42.4c0,6.5,4.1,12.2,9.8,14.5"/>
	<path id="slim" class="st1" d="M39.4,90.3c0,1.4,1.2,2.6,2.6,2.6c1.4,0,2.6-1.2,2.6-2.6v-5.1c0.5,0.7,1.3,1.2,2.1,1.2
		c1.4,0,2.6-1.2,2.6-2.6V73.7h-10v16.6H39.4z"/>
	<path id="right_x5F_ear_1_" class="st2" d="M61.7,58.3c2.2,0,4-1.9,4-4s-1.9-4-4-4c-2.3,0-4,1.9-4,4S59.5,58.3,61.7,58.3z"/>
	<path id="left_x5F_eye" class="st2" d="M38.4,50.5c-2,0-3.8,1.8-3.8,3.8s1.8,3.8,3.8,3.8s3.8-1.8,3.8-3.8S40.5,50.5,38.4,50.5z"/>
	<path id="right_x5F_ear" class="st0" d="M84.4,49.7h-5.8l-0.1,16.5h2.2c3.6,0,6.4-2.9,6.4-6.4v-7.2C87.3,50.9,86,49.7,84.4,49.7z"
		/>
	<path class="st3" d="M68.9,8.6c-3.3-1.8-9.7-0.3-12.7,2.4c-4.4,3.8-1.7,12.5,3.8,18.6c4,4.5,13.7,7.8,19.8,3.9
		c5.8-3.8,4.4-15.8,1.1-16.8C75,14.8,71.9,10.2,68.9,8.6z"/>
</g>
<path d="M38.3,45.4c-4.9,0-8.9,4-8.9,8.9s4,8.9,8.9,8.9s8.9-4,8.9-8.9S43.2,45.4,38.3,45.4z M38.3,57.1c-1.5,0-2.8-1.3-2.8-2.8
	s1.3-2.8,2.8-2.8s2.8,1.3,2.8,2.8S39.8,57.1,38.3,57.1z"/>
<path d="M61.7,45.4c-4.9,0-8.9,4-8.9,8.9s4,8.9,8.9,8.9s8.9-4,8.9-8.9S66.6,45.4,61.7,45.4z M61.7,57.1c-1.5,0-2.8-1.3-2.8-2.8
	s1.3-2.8,2.8-2.8s2.8,1.3,2.8,2.8S63.3,57.1,61.7,57.1z"/>
<path d="M84.2,45.8h-6.1v-9c0.9-0.3,1.8-0.8,2.7-1.3c6-3.8,7.7-11.7,3.9-17.7c-1.4-2.2-3.4-3.9-5.8-4.9c-1.1-0.5-2.3-0.8-3.6-0.9
	c-0.9-1.9-2.3-3.5-4.1-4.8c-5-3.5-11.7-2.9-16,1.1H39.3c-9.6,0-17.4,7.8-17.4,17.4v19.1h-6.1c-3.7,0-6.8,3-6.8,6.8v6.8
	c0,5.6,4.6,10.2,10.2,10.2H22c0.6,8,6.2,14.6,13.6,16.9v3.1c0,3.4,2.8,6.3,6.3,6.3c3.3,0,6.1-2.6,6.3-5.9c1.3-0.5,2.4-1.4,3.1-2.6
	h7.5c9.8,0,18-7.4,19.1-16.9h2.9C86.4,69.6,91,65,91,59.4v-6.8C91,48.8,87.9,45.8,84.2,45.8z M21.3,55.6l-1.6-2.2
	c-0.7-0.9-2-1.1-2.8-0.4c-0.9,0.7-1.1,2-0.4,2.8l4.9,6.5v2.3h-2.1c-3.4,0-6.1-2.8-6.1-6.1v-6.8c0-1.5,1.2-2.7,2.7-2.7h5.5
	C21.3,49,21.3,55.6,21.3,55.6z M48.1,83.2c0,1.2-1,2.2-2.2,2.2c-0.8,0-1.4-0.4-1.8-1v4.3c0,1.2-1,2.2-2.2,2.2s-2.2-1-2.2-2.2v-14
	h8.5L48.1,83.2L48.1,83.2z M74,67.2c0,8.4-6.8,15.3-15.3,15.3h-6.6v-8H63v-4.1H35.6v0.3v10.7C30,79.1,26,73.6,26,67.2V25.8
	c0-7.4,6-13.4,13.4-13.4H51c0.1,7.4,2.2,13,6,16.8c4,3.9,9.4,7.9,16.9,8.3L74,67.2L74,67.2z M74,34c-5,0-9.1-4.1-9.1-9.1
	c0-0.4,0-0.8,0.1-1.2c-0.2-0.4-0.5-0.8-0.9-1c-0.3-0.2-0.6-0.3-0.9-0.3c-1.1,0-2.1,0.8-2.1,2c0,0.6,0,1.1,0,1.7
	c0-0.1-0.1-0.2-0.2-0.3c-0.5-0.5-1.5-0.3-2.3-1.2c-0.6-0.8-1.3-1.6-1.8-2.4c-1-1.7-2-4.2-1.6-6.2c0.2-1.1,0.7-2.2,1.4-3.2
	c2.8-3.9,8.2-4.9,12.2-2.1c0.7,0.5,1.3,1.1,1.8,1.7c-1.3,0.3-2.6,0.9-3.8,1.6c-0.9,0.6-1.2,1.9-0.6,2.8c0.2,0.3,0.4,0.5,0.7,0.7
	c0.4,0.3,1,0.3,1.4,0.2c1.5-1.2,3.4-1.9,5.5-1.9c5,0,9.1,4.1,9.1,9.1C83.1,29.9,79.1,34,74,34z M86.9,59.4c0,3.4-2.7,6.1-6.1,6.1
	h-2.1v-2.3l4.9-6.5c0.7-0.9,0.5-2.2-0.4-2.8c-0.9-0.7-2.2-0.5-2.8,0.4l-1.6,2.2v-6.6h5.5c1.5,0,2.7,1.2,2.7,2.7
	C86.9,52.6,86.9,59.4,86.9,59.4z"/>
</svg>
